<svg width="18" height="19" viewBox="0 0 18 19" fill="none" xmlns="http://www.w3.org/2000/svg">
<g clip-path="url(#clip0_1159_1577)">
<path d="M2.25 9.5C2.25 10.3864 2.42459 11.2642 2.76381 12.0831C3.10303 12.9021 3.60023 13.6462 4.22703 14.273C4.85382 14.8998 5.59794 15.397 6.41689 15.7362C7.23583 16.0754 8.11358 16.25 9 16.25C9.88642 16.25 10.7642 16.0754 11.5831 15.7362C12.4021 15.397 13.1462 14.8998 13.773 14.273C14.3998 13.6462 14.897 12.9021 15.2362 12.0831C15.5754 11.2642 15.75 10.3864 15.75 9.5C15.75 7.70979 15.0388 5.9929 13.773 4.72703C12.5071 3.46116 10.7902 2.75 9 2.75C7.20979 2.75 5.4929 3.46116 4.22703 4.72703C2.96116 5.9929 2.25 7.70979 2.25 9.5Z" stroke="black" stroke-width="1.2" stroke-linecap="round" stroke-linejoin="round"/>
<path d="M2.70001 7.25H15.3" stroke="black" stroke-width="1.2" stroke-linecap="round" stroke-linejoin="round"/>
<path d="M2.70001 11.75H15.3" stroke="black" stroke-width="1.2" stroke-linecap="round" stroke-linejoin="round"/>
<path d="M8.625 2.75C7.3615 4.77471 6.69165 7.1134 6.69165 9.5C6.69165 11.8866 7.3615 14.2253 8.625 16.25" stroke="black" stroke-width="1.2" stroke-linecap="round" stroke-linejoin="round"/>
<path d="M9.375 2.75C10.6385 4.77471 11.3083 7.1134 11.3083 9.5C11.3083 11.8866 10.6385 14.2253 9.375 16.25" stroke="black" stroke-width="1.2" stroke-linecap="round" stroke-linejoin="round"/>
</g>
<defs>
<clipPath id="clip0_1159_1577">
<rect width="18" height="18" fill="white" transform="translate(0 0.5)"/>
</clipPath>
</defs>
</svg>
