<svg width="18" height="19" viewBox="0 0 18 19" fill="none" xmlns="http://www.w3.org/2000/svg">
<g clip-path="url(#clip0_1159_1572)">
<path d="M10.5 6.5V5C10.5 4.60218 10.342 4.22064 10.0607 3.93934C9.77935 3.65804 9.39782 3.5 9 3.5H3.75C3.35218 3.5 2.97064 3.65804 2.68934 3.93934C2.40804 4.22064 2.25 4.60218 2.25 5V14C2.25 14.3978 2.40804 14.7794 2.68934 15.0607C2.97064 15.342 3.35218 15.5 3.75 15.5H9C9.39782 15.5 9.77935 15.342 10.0607 15.0607C10.342 14.7794 10.5 14.3978 10.5 14V12.5" stroke="#FF3366" stroke-width="1.5" stroke-linecap="round" stroke-linejoin="round"/>
<path d="M6.75 9.5H15.75L13.5 7.25" stroke="#FF3366" stroke-width="1.5" stroke-linecap="round" stroke-linejoin="round"/>
<path d="M13.5 11.75L15.75 9.5" stroke="#FF3366" stroke-width="1.5" stroke-linecap="round" stroke-linejoin="round"/>
</g>
<defs>
<clipPath id="clip0_1159_1572">
<rect width="18" height="18" fill="white" transform="translate(0 0.5)"/>
</clipPath>
</defs>
</svg>
