<svg width="20" height="20" viewBox="0 0 20 20" fill="none" xmlns="http://www.w3.org/2000/svg">
<g clip-path="url(#clip0_1159_1434)">
<path d="M9.16675 9.99984C9.16675 10.2209 9.25455 10.4328 9.41083 10.5891C9.56711 10.7454 9.77907 10.8332 10.0001 10.8332C10.2211 10.8332 10.4331 10.7454 10.5893 10.5891C10.7456 10.4328 10.8334 10.2209 10.8334 9.99984C10.8334 9.77882 10.7456 9.56686 10.5893 9.41058C10.4331 9.2543 10.2211 9.1665 10.0001 9.1665C9.77907 9.1665 9.56711 9.2543 9.41083 9.41058C9.25455 9.56686 9.16675 9.77882 9.16675 9.99984Z" fill="white" stroke="white" stroke-width="2.5" stroke-linecap="round" stroke-linejoin="round"/>
<path d="M9.16675 15.8333C9.16675 16.0543 9.25455 16.2663 9.41083 16.4226C9.56711 16.5789 9.77907 16.6667 10.0001 16.6667C10.2211 16.6667 10.4331 16.5789 10.5893 16.4226C10.7456 16.2663 10.8334 16.0543 10.8334 15.8333C10.8334 15.6123 10.7456 15.4004 10.5893 15.2441C10.4331 15.0878 10.2211 15 10.0001 15C9.77907 15 9.56711 15.0878 9.41083 15.2441C9.25455 15.4004 9.16675 15.6123 9.16675 15.8333Z" fill="white" stroke="white" stroke-width="2.5" stroke-linecap="round" stroke-linejoin="round"/>
<path d="M9.16675 4.16683C9.16675 4.38784 9.25455 4.5998 9.41083 4.75608C9.56711 4.91237 9.77907 5.00016 10.0001 5.00016C10.2211 5.00016 10.4331 4.91237 10.5893 4.75608C10.7456 4.5998 10.8334 4.38784 10.8334 4.16683C10.8334 3.94582 10.7456 3.73385 10.5893 3.57757C10.4331 3.42129 10.2211 3.3335 10.0001 3.3335C9.77907 3.3335 9.56711 3.42129 9.41083 3.57757C9.25455 3.73385 9.16675 3.94582 9.16675 4.16683Z" fill="white" stroke="white" stroke-width="2.5" stroke-linecap="round" stroke-linejoin="round"/>
</g>
<defs>
<clipPath id="clip0_1159_1434">
<rect width="20" height="20" fill="white"/>
</clipPath>
</defs>
</svg>
